{"title":"Dying of the Light 2014 WEPRip XviD AC3-FWOLF","uid":11660410,"size":1421251243,"categoryP":"video","categoryS":"movies","magnet":"?xt=urn:btih:09f27b9fa3ebf8e4da0d63f6286daa5df8652638&amp;dn=Dying+of+the+Light+2014+WEPRip+XviD+AC3-FWOLF&amp;tr=udp%3A%2F%2Ftracker.openbittorrent.com%3A80&amp;tr=udp%3A%2F%2Fopen.demonii.com%3A1337&amp;tr=udp%3A%2F%2Ftracker.coppersurfer.tk%3A6969&amp;tr=udp%3A%2F%2Fexodus.desync.com%3A6969","seeders":1,"leechers":0,"uploader":"TvTeam","files":6,"time":1417989873,"description":" &lt;a href=&quot;https://www.torrenting.com&quot; rel=&quot;nofollow&quot; target=&quot;_NEW&quot;&gt;https://www.torrenting.com&lt;/a&gt;\n\nSign up is OPEN - for time being. Come and have fun.Dying of the Light 2014 WEPRip XviD AC3-FWOLF\n\nimdb.... &lt;a href=&quot;\nhttp://www.imdb.com/title/tt1274586/&quot; rel=&quot;nofollow&quot; target=&quot;_NEW&quot;&gt;\nhttp://www.imdb.com/title/tt1274586/&lt;/a&gt;\n\n\nEvan Lake refuses to retire from his career in the CIA\nand goes rogue to hunt down his terrorist who tortured \nhim during a mission gone awry years ago.\n\n\n\nDirector: Paul Schrader\n\nWriters:  Paul Schrader\n\n   \nStars:    Nicolas Cage, Anton Yelchin, Alexander Karim\n\n\nFormat                                   : AVI\nFormat/Info                              : Audio Video Interleave\nFile size                                : 1.30 GiB\nDuration                                 : 1h 34mn\nOverall bit rate                         : 1 985 Kbps\n\nVideo\nID                                       : 0\nFormat                                   : MPEG-4 Visual\nFormat profile                           : Advanced Simple@L5\nFormat settings, BVOP                    : 2\nFormat settings, QPel                    : Yes\nFormat settings, GMC                     : No warppoints\nFormat settings, Matrix                  : Default (H.263)\nCodec ID                                 : XVID\nCodec ID/Hint                            : XviD\nDuration                                 : 1h 34mn\nBit rate                                 : 1 593 Kbps\nWidth                                    : 720 pixels\nHeight                                   : 304 pixels\nDisplay aspect ratio                     : 2.35:1\nFrame rate                               : 23.976 fps\nColor space                              : YUV\nChroma subsampling                       : 4:2:0\nBit depth                                : 8 bits\nScan type                                : Progressive\nCompression mode                         : Lossy\nBits/(Pixel*Frame)                       : 0.304\nStream size                              : 1.05 GiB (80%)\nWriting library                          : XviD 1.2.1 (UTC 2008-12-04)\n\nAudio\nID                                       : 1\nFormat                                   : AC-3\nFormat/Info                              : Audio Coding 3\nMode extension                           : CM (complete main)\nFormat settings, Endianness              : Big\nCodec ID                                 : 2000\nDuration                                 : 1h 34mn\nBit rate mode                            : Constant\nBit rate                                 : 384 Kbps\nChannel(s)                               : 6 channels\nChannel positions                        : Front: L C R, Side: L R, LFE\nSampling rate                            : 48.0 KHz\nBit depth                                : 16 bits\nCompression mode                         : Lossy\nStream size                              : 258 MiB (19%)\nAlignment                                : Aligned on interleaves\nInterleave, duration                     : 64 ms (1.53 video frames)\nInterleave, preload duration             : 192 ms\nTitle                                    : English\n\n\n\n\n\nEncoded....................FWOLF              \n\nSource.....................720p WEB-DL-PLAYNOW (Thanks!)\n\nSample.....................Yes\n\nSubs.......................(srt)English\n\n\n\n\n[img]http://s8.postimg.org/uin0dg5qt/image.png[/img]\n\n\n\n\n[img]http://s13.postimg.org/rk86dpf8n/image.png[/img]\n\n\n\n\n[img]http://s1.postimg.org/alnn4rjnz/image.png[/img]\n\n\n\n\nGreetz To: PsiX | Blacksheep | CFR | tomcat-12...\n.....and all P2P Encoders and Groups","torrent":{"xt":"urn:btih:09f27b9fa3ebf8e4da0d63f6286daa5df8652638","amp;dn":"Dying+of+the+Light+2014+WEPRip+XviD+AC3-FWOLF","amp;tr":["udp%3A%2F%2Ftracker.openbittorrent.com%3A80","udp%3A%2F%2Fopen.demonii.com%3A1337","udp%3A%2F%2Ftracker.coppersurfer.tk%3A6969","udp%3A%2F%2Fexodus.desync.com%3A6969"],"infoHash":"09f27b9fa3ebf8e4da0d63f6286daa5df8652638","infoHashBuffer":{"type":"Buffer","data":[9,242,123,159,163,235,248,228,218,13,99,246,40,109,170,93,248,101,38,56]},"announce":[],"urlList":[]}}